<svg id="Layer_1" data-name="Layer 1" xmlns="http://www.w3.org/2000/svg" xmlns:xlink="http://www.w3.org/1999/xlink" viewBox="0 0 425.67 354.73"><defs><style>.cls-1{fill:url(#linear-gradient);}</style><linearGradient id="linear-gradient" x1="33.94" y1="250" x2="459.61" y2="250" gradientUnits="userSpaceOnUse"><stop offset="0" stop-color="#3e3996"/><stop offset="0" stop-color="#35110b"/><stop offset="0" stop-color="#3b303b"/><stop offset="0.08" stop-color="#501910"/><stop offset="0.14" stop-color="#531c12"/><stop offset="0.19" stop-color="#5b2417"/><stop offset="0.22" stop-color="#6a3320"/><stop offset="0.25" stop-color="#7f472c"/><stop offset="0.28" stop-color="#9a623c"/><stop offset="0.31" stop-color="#bb8350"/><stop offset="0.32" stop-color="#c78f57"/><stop offset="0.37" stop-color="#e5a24a"/><stop offset="0.44" stop-color="#f5ac3e"/><stop offset="0.5" stop-color="#fbb03c"/><stop offset="0.57" stop-color="#f6ad3f"/><stop offset="0.64" stop-color="#eba543"/><stop offset="0.66" stop-color="#e6a245"/><stop offset="0.69" stop-color="#d99a4b"/><stop offset="0.7" stop-color="#d5984c"/><stop offset="0.75" stop-color="#b9875d"/><stop offset="0.88" stop-color="#501910"/><stop offset="0.93" stop-color="#4c180f"/><stop offset="0.97" stop-color="#41150d"/><stop offset="1" stop-color="#35110b"/></linearGradient></defs><path class="cls-1" d="M117.32,288V220.64l-80.15.9c1.57,2.74,3.77,6.37,6.61,10.5a156.25,156.25,0,0,0,16.77,20.09c10.5,10.82,18.22,18.59,30.51,25.7A94.41,94.41,0,0,0,117.32,288Zm10.4,2.12a4.74,4.74,0,0,0,.72,2.38c1.84,2.87,6.82,2.78,11.75,2.69a34.11,34.11,0,0,0,3.9-.23V220.11H127.72Zm191,24.26c11.41-7.16,66.8-32.74,143.07-65.64q.52-14.31,1-28.63l-306.78-1.87V300a6.91,6.91,0,0,0,1,1,10,10,0,0,0,5.84,2.13c3.9.28,17.87,4.48,26.69,13.2A38,38,0,0,1,199.13,333a39.32,39.32,0,0,1,1.47,12.82,58.86,58.86,0,0,1-5.77,20.31c-8.26,16.6-22.64,24.75-36.27,32.5a147.28,147.28,0,0,1-29,12.5v16.1l99.56-.52-.42-88.48a72.06,72.06,0,0,0-2.31-17.49A47.86,47.86,0,0,0,224,314a58.51,58.51,0,0,0-15.88-16.65,57.38,57.38,0,0,0-23.13-9.53c-8.77-1.38-20.1-.84-20.1-.84l.33-9.55a152.56,152.56,0,0,1,19.36.48c11.88,1.43,20.46,6.72,26.17,10.22,6,3.69,13.07,8.06,19.14,16.75a53,53,0,0,1,8.62,21c-.36,58.9-.63,76.16-.63,76.16l-.42,25.33.26-.22,9.75-1c.08-16.25.62-131.82.62-131.82l-3.41-1.89c-2.61-1.5-5.28-5.87-5.37-10.16-.12-6.39,5.51-13.52,13.3-13.48a13.63,13.63,0,0,1,13.15,13.1c.11,6.23-5,11-6.77,11.51l-2.19.64s-.19,46.25-.54,132.33l116,.84.84-17.37a114.6,114.6,0,0,1-43.5-19.53c-8.21-6.09-16.95-12.65-22.42-24.9a54.14,54.14,0,0,1-4.66-22.15A35.45,35.45,0,0,1,307.68,325a34.23,34.23,0,0,1,11-10.66ZM208.31,373.09a9,9,0,0,1,2.37-.26c2.21.19,4,2.81,4,2.8s-6.15,16.55-19,27.42a159.76,159.76,0,0,1-13.5,9.69s-9.09.78-10.25-2c-.5-1.21.26-3.54.26-3.54a119.5,119.5,0,0,0,15.87-9S193.87,393.94,208.31,373.09Zm169.34-130.7a10.08,10.08,0,0,1-2.11,4.87h0l-90.69-.14h0c.86,1.52-2.29-3-2.25-4.73,0-2.37,2.53-4.68,2.52-4.68h0l91.47.22h0A10.09,10.09,0,0,1,377.65,242.39Zm-62.37,151.2a155.73,155.73,0,0,0,20.35,16.53,16.33,16.33,0,0,1-2.53,2.39c-2.85,1.92-7.42.69-7.42.69,4.08,2.76-8.28-5.4-12.14-8.48a60,60,0,0,1-9.59-9.2c-3.54-4.3-9.13-11.29-9.17-20.68,0-2.45,0-6,1.42-6.52,2.86-1,6.37,12.32,19,25.27ZM286.63,268.24s-2.6-2.14-2.73-4.46c-.12-2,1.69-4.23,1.68-4.23H376.2a9.6,9.6,0,0,1,.84,4.06,9.09,9.09,0,0,1-2.06,4.58Zm52.22-150.86c-6.5-22.26-13.19-31.74-21.82-37.76a43.5,43.5,0,0,0-12.58-6,38.43,38.43,0,0,0-5.1-.83c-5.85-.56-9.19.5-21.14,3-9.35,2-11.92,2.37-14.43,2.6a82.62,82.62,0,0,1-9.31.37A98.89,98.89,0,0,1,234,76c-5.2-1.26-6.87-2-11.85-2.76a46.22,46.22,0,0,0-9.1-.54,38.92,38.92,0,0,0-10.39,2.1A44.8,44.8,0,0,0,191,82.34c-4.55,4.07-8.61,9.47-13.72,21.45a139.26,139.26,0,0,0-10.72,36.56c-2.61,17.26-6.56,43.48,6.07,53.11a17,17,0,0,0,4.66,2.49,20.55,20.55,0,0,0,4.44,1c6.89.63,14-4.62,15.25-5.54,2.24-1.66,4.25-3.75,8.26-7.94,3.25-3.39,3.4-3.87,5.07-5.49a37.84,37.84,0,0,1,12.25-7.81c5.59-2.34,10.05-2.83,18.23-3.73,4.37-.48,8-.65,10.52-.72h0c17.3.17,22.65.82,22.65.82,9.85,1.2,14.56,3.18,15.95,3.79a39.79,39.79,0,0,1,8.77,5.07c4.88,3.75,5.71,6.26,12.9,12.88a52.86,52.86,0,0,0,5.63,4.5,23.2,23.2,0,0,0,4.75,2.79,17.05,17.05,0,0,0,7.36,1.19A21.8,21.8,0,0,0,340.63,192C356.66,178.36,345.93,141.58,338.85,117.38Zm-123.66,9.4v12.81a4.88,4.88,0,0,1-.15,1.86,3.77,3.77,0,0,1-.74,1.38,4.56,4.56,0,0,1-1.66,1.3,4.16,4.16,0,0,1-1.35.32,4.44,4.44,0,0,1-3.7-1.77,5,5,0,0,1-.87-3c-.14-5.53,0-12.29,0-13.09h-4.38c-1.74,0-6.73.22-8.77,0a4.05,4.05,0,0,1-1-.25,4.29,4.29,0,0,1-1.59-1.1,4.51,4.51,0,0,1-1.13-2.47,5.42,5.42,0,0,1,0-.57,4.85,4.85,0,0,1,.58-2.24,4.23,4.23,0,0,1,2.55-2l.75-.13h13.1l.09-13.76a6.24,6.24,0,0,1,1-2.55,4.25,4.25,0,0,1,3.29-1.54,4.18,4.18,0,0,1,3,1.59,4.28,4.28,0,0,1,.9,1.73,9,9,0,0,1,.15,2.13v12.5h13.28a5.42,5.42,0,0,1,1,.25,4.18,4.18,0,0,1,1.73,1.3,4.54,4.54,0,0,1-.58,6.22,3.67,3.67,0,0,1-.64.45,5.52,5.52,0,0,1-2.42.61c-.9.06-5.74,0-12.36,0Zm72-29c4.5-.81,9.74,2.77,9.74,7.44,0,4.16-4,7.77-8.21,7.77s-8.28-3.4-8.23-7.77c.07-3.91,3.43-6.88,6.7-7.47Zm-8.44,26c-.67,4.12-4.88,6.57-8.61,6.31s-7.45-3.27-7.68-7.18c-.26-4.61,4.45-8.75,9.1-8.2,4.13.44,7.9,4.61,7.19,9Zm10.92,23.28c-4.42.5-9.13-3.05-9.15-7.67,0-4,3.56-7.2,7.16-7.7,4.09-.57,8.9,2.24,9.35,6.78.43,4.31-3.38,8.1-7.36,8.56Zm22.78-19.2a8,8,0,0,1-7.31,2c-3.23-.75-6.6-3.76-6.52-7.78.07-4.45,4.31-7.18,7.44-7.58a7,7,0,0,1,2.92.22c2.49.7,5.66,3,6,6.65a8.23,8.23,0,0,1-2.57,6.43ZM207.28,104.18v0Zm-2.93,40.76,35.93,20.49" transform="translate(-37.17 -72.63)"/></svg>